<svg fill="#ffffff" height="200px" width="200px" version="1.1" id="Layer_1" xmlns="http://www.w3.org/2000/svg" xmlns:xlink="http://www.w3.org/1999/xlink" viewBox="0 0 512 512" xml:space="preserve" stroke="#ffffff"><g id="SVGRepo_bgCarrier" stroke-width="0"></g><g id="SVGRepo_tracerCarrier" stroke-linecap="round" stroke-linejoin="round"></g><g id="SVGRepo_iconCarrier"> <g> <g> <path d="M496.509,8.163h-71.404H218.823h-65.835H86.895H15.491C6.937,8.163,0,15.099,0,23.653v464.693 c0,8.554,6.937,15.491,15.491,15.491h481.019c8.554,0,15.491-6.937,15.491-15.491V23.653C512,15.098,505.065,8.163,496.509,8.163z M234.314,141.686h83.899c8.554,0,15.491-6.937,15.491-15.491s-6.937-15.491-15.491-15.491h-83.899v-71.56h175.302v123.912 H234.314V141.686z M168.479,39.144h34.854v123.912h-34.854V39.144z M102.385,39.144h35.113v123.912h-35.113V39.144z M481.02,472.856h-0.002H30.981V39.144h40.423v139.403c0,8.554,6.937,15.491,15.491,15.491h66.094h65.835h206.284 c8.554,0,15.491-6.937,15.491-15.491V39.144h40.423V472.856z"></path> </g> </g> <g> <g> <path d="M393.739,299.166c-2.288-42.698-36.781-76.144-78.53-76.144c-25.245,0-46.314,16.037-58.991,28.664 c-12.428-12.69-33.269-28.664-59.431-28.664c-41.746,0-76.239,33.447-78.523,76.149c-1.382,25.905,8.636,44.343,16.293,55.961 c10.651,16.161,36.888,40.489,57.893,57.865c46.368,38.366,58.937,38.366,63.669,38.366c4.794,0,17.526,0,63.654-38.294 c20.844-17.306,46.946-41.617,57.689-57.953C385.112,343.475,395.123,325.011,393.739,299.166z M351.572,338.096 c-6.81,10.355-26.435,29.981-48.836,48.833c-24.517,20.633-40.75,30.789-46.624,33.128c-16.967-6.391-80.819-59.411-95.689-81.973 c-8.566-13-11.923-24.144-11.224-37.26c1.383-25.818,22.731-46.822,47.589-46.822c25.773,0,46.137,29.805,46.311,30.066 c2.821,4.249,7.567,6.82,12.667,6.904c5.123,0.129,9.928-2.365,12.885-6.523c6.029-8.469,26.143-30.447,46.56-30.447 c24.859,0,46.208,21.004,47.592,46.822C363.501,313.909,360.143,325.057,351.572,338.096z"></path> </g> </g> <g> <g> <path d="M379.614,123.167c-0.2-0.991-0.496-1.967-0.883-2.895c-0.387-0.931-0.867-1.829-1.425-2.68 c-0.556-0.836-1.207-1.642-1.921-2.355c-0.713-0.713-1.503-1.363-2.355-1.921c-0.836-0.558-1.735-1.038-2.68-1.425 c-0.929-0.387-1.904-0.682-2.895-0.883c-1.998-0.403-4.043-0.403-6.041,0c-0.991,0.201-1.967,0.496-2.897,0.883 c-0.945,0.387-1.842,0.867-2.678,1.425c-0.854,0.558-1.644,1.208-2.356,1.921c-0.713,0.713-1.363,1.517-1.921,2.355 c-0.573,0.852-1.038,1.75-1.425,2.68s-0.697,1.904-0.898,2.897c-0.201,1.005-0.293,2.014-0.293,3.036 c0,1.005,0.093,2.014,0.293,3.021c0.201,0.991,0.511,1.952,0.898,2.895c0.387,0.931,0.852,1.829,1.425,2.666 c0.558,0.852,1.208,1.642,1.921,2.369c0.713,0.713,1.503,1.348,2.356,1.921c0.836,0.558,1.733,1.038,2.678,1.425 c0.931,0.387,1.905,0.682,2.897,0.883c0.991,0.201,2.014,0.293,3.021,0.293c4.074,0,8.071-1.642,10.95-4.523 c0.714-0.728,1.365-1.517,1.921-2.369c0.558-0.836,1.038-1.735,1.425-2.666c0.387-0.943,0.682-1.904,0.883-2.895 c0.201-1.007,0.31-2.015,0.31-3.021C379.924,125.18,379.816,124.172,379.614,123.167z"></path> </g> </g> </g></svg>